<svg version="1.0" preserveAspectRatio="xMidYMid meet" height="1080" viewBox="0 0 1440 809.999993" zoomAndPan="magnify" width="1920" xmlns:xlink="http://www.w3.org/1999/xlink" xmlns="http://www.w3.org/2000/svg"><defs><g></g></defs><path stroke-miterlimit="4" stroke-opacity="1" stroke-width="34.337383" stroke="#cf8560" d="M 67.684678 152.82582 C 67.684678 151.789362 67.21072 150.98207 66.257595 150.403945 C 65.30447 149.82582 64.189886 149.409153 62.903428 149.159153 C 61.663845 148.872695 60.356553 148.685195 58.991969 148.601862 C 57.669053 148.518528 56.653428 148.476862 55.950303 148.476862 C 51.398219 148.476862 46.820094 148.747695 42.226344 149.284153 C 37.632593 149.784153 33.054468 150.028945 28.502385 150.028945 C 24.611759 150.028945 20.783634 149.57582 17.012801 148.664362 C 13.288842 147.711237 9.934675 146.26332 6.955508 144.315403 C 4.018008 142.372695 1.653425 139.82582 -0.122617 136.679986 C -1.903867 133.534153 -2.794492 129.768527 -2.794492 125.377902 C -2.794492 121.112277 -1.945534 117.242485 -0.247617 113.763318 C 1.4503 110.28936 3.726342 107.28936 6.580508 104.763318 C 9.48155 102.195609 12.79405 100.247693 16.518009 98.924776 C 20.241967 97.560192 24.153426 96.877901 28.252384 96.877901 C 34.17426 96.877901 40.012802 97.476859 45.76801 98.674776 C 51.559677 99.836234 57.419053 100.414359 63.340928 100.414359 C 71.122178 100.414359 78.778429 99.752901 86.314887 98.429984 C 93.893013 97.060192 101.486763 96.377901 109.106555 96.377901 C 113.866972 96.377901 118.356556 96.815401 122.580514 97.685192 C 126.846139 98.508109 130.611765 99.940401 133.882598 101.966443 C 137.195098 103.997693 139.820098 106.78936 141.768015 110.35186 C 143.75239 113.909152 144.747182 118.403944 144.747182 123.825819 C 144.747182 129.081027 143.856557 133.617486 142.080515 137.424778 C 140.299265 141.23207 138.044057 144.79457 135.309682 148.10707 C 132.616973 151.41957 129.741973 154.726862 126.679473 158.039362 C 123.616973 161.351862 120.715931 165.143529 117.986764 169.403946 C 115.294056 173.627905 113.05968 178.617488 111.27843 184.372697 C 109.49718 190.122697 108.606555 197.164364 108.606555 205.482073 C 108.606555 209.372698 108.731555 213.226865 108.981555 217.034157 C 109.226347 220.841449 109.351347 224.711241 109.351347 228.643532 C 109.351347 234.565408 108.752389 240.15395 107.554472 245.414367 C 106.393013 250.669575 104.116972 255.763325 100.721138 260.685201 C 99.023221 263.211242 96.768013 265.799784 93.955513 268.450826 C 91.179471 271.060201 88.179471 273.482076 84.950304 275.716451 C 81.721137 277.90916 78.36697 279.711243 74.887804 281.117493 C 71.413845 282.56541 68.163845 283.289368 65.137803 283.289368 C 59.507594 283.289368 54.231552 282.320618 49.304469 280.372702 C 44.419052 278.424785 40.195093 275.716451 36.637802 272.237285 C 33.075301 268.758118 30.283635 264.622701 28.252384 259.820617 C 26.226343 254.976867 25.210718 249.65395 25.210718 243.857075 C 25.210718 234.211241 27.403426 224.857074 31.794051 215.789365 C 36.179468 206.726865 41.044052 198.299781 46.387802 190.51853 C 51.768011 182.695613 56.653428 175.61228 61.044053 169.278946 C 65.471136 162.903946 67.684678 157.41957 67.684678 152.82582 Z M 213.908644 95.883109 C 224.096144 95.883109 234.48677 96.935192 245.08052 99.049776 C 255.679479 101.159151 265.283646 104.554984 273.89823 109.232068 C 282.549272 113.867485 289.544064 119.893527 294.882606 127.304986 C 300.268023 134.669569 302.689898 143.508111 302.148232 153.820612 C 301.986773 159.450821 300.929482 164.294571 298.981565 168.351863 C 297.038856 172.403946 294.90344 175.883113 292.585731 178.784155 C 290.309689 181.638322 288.283648 184.060197 286.502397 186.044572 C 284.721147 187.992489 283.830522 189.711239 283.830522 191.200822 C 283.830522 192.565406 285.528439 194.054989 288.924273 195.669572 C 292.320106 197.284156 296.085731 199.461239 300.226357 202.190406 C 304.40344 204.883115 308.195107 208.362281 311.59094 212.622698 C 314.981566 216.846657 316.679482 222.185199 316.679482 228.643532 C 316.679482 239.325825 313.616982 248.226867 307.491982 255.346659 C 301.40344 262.466451 293.351356 268.200826 283.335731 272.549785 C 273.314897 276.851868 261.86698 279.94041 248.997187 281.799785 C 236.122187 283.664368 222.809686 284.59666 209.064894 284.59666 C 204.679477 284.59666 199.132601 284.117494 192.424268 283.164368 C 185.715934 282.258118 179.215934 280.581035 172.924267 278.138327 C 166.674266 275.653951 161.294058 272.341451 156.778433 268.200826 C 152.309682 264.018534 150.075307 258.804992 150.075307 252.554992 C 150.075307 246.424783 150.924266 240.877908 152.622182 235.909158 C 154.314891 230.903949 156.221141 225.601866 158.330516 220.013324 C 160.445099 214.383115 162.346141 207.966448 164.044058 200.763323 C 165.741975 193.560197 166.590933 184.700822 166.590933 174.185196 C 166.590933 168.101863 166.075308 162.513321 165.03885 157.41957 C 164.044058 152.32582 162.908641 147.711237 161.622183 143.570611 C 160.340933 139.393528 159.137808 135.476861 158.023224 131.836236 C 156.945099 128.195611 156.408641 124.674777 156.408641 121.278944 C 156.408641 118.216443 157.544058 115.174777 159.825308 112.153943 C 162.143016 109.086235 165.658641 106.336235 170.377392 103.893526 C 175.143017 101.409151 181.122184 99.461234 188.325309 98.054984 C 195.528435 96.607067 204.054477 95.883109 213.908644 95.883109 Z M 230.179478 139.351861 C 227.653436 139.351861 225.502394 139.909153 223.721144 141.028945 C 221.939894 142.101861 220.491978 143.409153 219.372186 144.940403 C 218.257602 146.471653 217.491977 148.04457 217.075311 149.659153 C 216.663852 151.273737 216.455519 152.659154 216.455519 153.820612 C 216.455519 159.612279 217.304477 164.002904 219.002394 166.982071 C 220.700311 169.924779 223.575311 171.39353 227.632603 171.39353 C 229.497186 171.39353 231.523228 171.018529 233.721145 170.273738 C 235.95552 169.487279 237.960728 168.331029 239.741978 166.794571 C 241.523229 165.263321 242.991979 163.362279 244.153437 161.086237 C 245.351354 158.804987 245.950312 156.13832 245.950312 153.07582 C 245.950312 151.211237 245.476354 149.471653 244.523229 147.85707 C 243.61177 146.242487 242.39302 144.815403 240.86177 143.570611 C 239.33052 142.289361 237.632603 141.273736 235.76802 140.528945 C 233.903437 139.742486 232.044061 139.351861 230.179478 139.351861 Z M 217.450311 216.164365 C 217.450311 220.05499 217.945102 222.893532 218.939894 224.669574 C 219.976352 226.450824 221.090936 227.341449 222.294061 227.341449 C 223.825311 227.341449 225.768019 227.258116 228.132603 227.091449 C 230.533645 226.929991 232.872186 226.513324 235.148228 225.851866 C 237.42427 225.148741 239.372187 224.174782 240.981562 222.935199 C 242.596145 221.64874 243.403437 219.99249 243.403437 217.966449 C 243.403437 215.232073 242.637812 213.018532 241.106562 211.320615 C 239.575312 209.622698 237.757603 208.278948 235.64302 207.284156 C 233.533645 206.247698 231.23677 205.565406 228.752395 205.237281 C 226.309686 204.903948 224.075311 204.737281 222.044061 204.737281 C 220.018019 204.737281 218.773227 205.294573 218.320102 206.414365 C 217.903436 207.49249 217.616977 210.74249 217.450311 216.164365 Z M 405.710737 96.127901 C 411.460737 96.127901 417.778446 96.461234 424.648238 97.122692 C 431.51803 97.784151 438.038863 99.008109 444.210739 100.789359 C 450.419072 102.565401 455.757614 105.028943 460.231573 108.174776 C 464.74199 111.325818 467.413865 115.278943 468.24199 120.03936 C 469.111782 124.424777 469.627407 129.685194 469.794073 135.810194 C 469.96074 141.893528 470.887823 149.018528 472.58574 157.16957 C 473.747199 163.258112 475.856574 168.888321 478.919074 174.060196 C 481.986782 179.23728 485.070116 184.414363 488.174283 189.586239 C 491.320116 194.763322 494.075325 200.143531 496.4347 205.732073 C 498.835742 211.320615 500.033658 217.508115 500.033658 224.299782 C 500.033658 232.617491 499.268033 240.299783 497.736783 247.336242 C 496.205533 254.3727 493.575325 260.357076 489.851366 265.284159 C 486.122199 270.169576 481.241991 274.018535 475.195115 276.831035 C 469.195115 279.607077 461.61699 280.992493 452.465948 280.992493 C 447.377406 280.992493 442.92428 280.143535 439.116989 278.445618 C 435.309697 276.747701 432.122196 274.554993 429.554488 271.867493 C 427.028446 269.133118 425.163863 266.091451 423.965946 262.737284 C 422.804488 259.341451 422.226363 255.945617 422.226363 252.554992 C 422.226363 250.690408 422.351363 248.659158 422.601363 246.46645 C 422.846154 244.232075 422.700321 242.143533 422.163863 240.195616 C 421.669071 238.2477 420.611779 236.596658 418.997196 235.226866 C 417.424279 233.862283 414.856571 233.179991 411.299279 233.179991 C 404.01282 233.179991 399.29407 234.461241 397.13782 237.028949 C 395.028445 239.554991 393.971153 242.679991 393.971153 246.40395 C 393.971153 251.664367 393.205528 256.549784 391.674278 261.060201 C 390.143028 265.528951 388.054486 269.383118 385.403444 272.612285 C 382.794069 275.841451 379.710736 278.383118 376.148235 280.247702 C 372.590943 282.112285 368.866985 283.044577 364.971151 283.044577 C 350.236776 283.044577 338.997192 280.039368 331.2524 274.039368 C 323.554483 267.992493 319.705524 257.685201 319.705524 243.112283 C 319.705524 239.388325 320.471149 235.664366 322.002399 231.935199 L 322.747191 230.883116 C 324.611774 226.987282 326.679483 222.768532 328.955525 218.21124 C 331.273233 213.61749 333.53365 209.002906 335.726358 204.367489 C 337.919067 199.685198 339.950317 194.966447 341.809692 190.20603 C 343.715942 185.445614 345.247192 181.039363 346.403442 176.982071 C 347.939901 171.39353 349.116984 166.133113 349.945109 161.206029 C 350.814901 156.284154 351.622192 151.461237 352.366984 146.737278 C 353.153443 141.976861 354.085734 137.195611 355.163859 132.393528 C 356.278443 127.549777 357.934693 122.502902 360.127401 117.242485 C 361.991985 112.648735 364.580526 108.961235 367.893027 106.190401 C 371.205527 103.372693 374.929485 101.242484 379.07011 99.794568 C 383.252402 98.346651 387.616986 97.372692 392.169069 96.877901 C 396.768028 96.377901 401.278445 96.127901 405.710737 96.127901 Z M 399.559695 195.549781 C 399.559695 196.044572 400.101362 196.476864 401.174278 196.851864 C 402.29407 197.185197 403.533653 197.471656 404.903445 197.721656 C 406.268029 197.971656 407.632612 198.174781 409.002404 198.341448 C 410.366987 198.508114 411.299279 198.591448 411.79407 198.591448 C 413.658654 198.591448 415.934696 198.424781 418.627404 198.091448 C 421.356571 197.763322 423.054488 196.747697 423.715946 195.049781 C 424.257613 194.018531 424.419071 192.362281 424.215946 190.08103 C 424.049279 187.804989 423.840946 185.320614 423.590946 182.633113 C 423.346154 179.898738 423.054488 177.086238 422.721154 174.185196 C 422.393029 171.289363 422.226363 168.659154 422.226363 166.299779 C 422.226363 160.877904 421.377404 157.028945 419.679488 154.747695 C 417.981571 152.429987 416.450321 151.273737 415.085737 151.273737 C 414.257612 151.273737 413.241987 151.581029 412.04407 152.206029 C 410.840945 152.784154 409.643029 153.674779 408.439904 154.872695 C 407.283654 156.034154 406.309695 157.565404 405.523237 159.471654 C 404.778445 161.331029 404.403445 163.528946 404.403445 166.049779 C 404.403445 168.247696 404.096153 170.789363 403.471153 173.690405 C 402.893028 176.586238 402.314903 179.48728 401.736778 182.383113 C 401.153445 185.23728 400.596153 187.846655 400.059695 190.20603 C 399.559695 192.565406 399.393028 194.346656 399.559695 195.549781 Z M 582.965954 221.752907 C 581.101371 221.752907 579.653454 222.268532 578.622204 223.30499 C 577.627412 224.299782 576.903454 225.560199 576.44512 227.091449 C 576.033662 228.622699 575.783662 230.237282 575.700329 231.935199 C 575.616995 233.633116 575.575329 235.247699 575.575329 236.778949 C 575.575329 240.836241 575.866995 244.851867 576.44512 248.825825 C 577.07012 252.799784 577.377412 256.752909 577.377412 260.685201 C 577.377412 269.341451 574.997204 275.653951 570.236787 279.62791 C 565.47637 283.601868 558.955536 285.586244 550.674286 285.586244 C 544.882619 285.586244 539.518035 284.617494 534.590952 282.669577 C 529.705535 280.726868 525.486785 278.013327 521.924284 274.53416 C 518.366992 271.060201 515.549284 266.898743 513.481576 262.054992 C 511.450325 257.211242 510.4347 251.909159 510.4347 246.159158 C 510.4347 243.46645 510.705534 240.836241 511.241992 238.268533 C 511.908659 233.346658 512.919076 228.643532 514.288867 224.174782 C 515.653451 219.664365 516.997201 215.08624 518.325326 210.450823 C 519.689909 205.77374 520.866993 201.034156 521.861784 196.232072 C 522.898243 191.388322 523.413868 186.252905 523.413868 180.83103 C 523.413868 175.367488 522.814909 170.398738 521.616993 165.929988 C 520.455534 161.414362 519.195118 157.008112 517.825326 152.70082 C 516.502409 148.393528 515.241992 143.987278 514.038867 139.471653 C 512.840951 134.961236 512.236784 130.075819 512.236784 124.82061 C 512.236784 118.57061 513.460742 113.497693 515.903451 109.607068 C 518.387826 105.674776 521.575326 102.648734 525.465951 100.539359 C 529.356576 98.429984 533.643035 96.997692 538.320118 96.252901 C 542.997202 95.466442 547.611786 95.075817 552.169078 95.075817 C 556.429494 95.075817 560.158661 95.966442 563.346161 97.742484 C 566.575328 99.523734 569.325328 101.903943 571.60137 104.888318 C 573.919079 107.867485 575.658662 111.304985 576.82012 115.19561 C 578.018037 119.086235 578.622204 123.060194 578.622204 127.117486 C 578.622204 130.513319 577.934704 134.258111 576.57012 138.35707 C 575.247204 142.414361 574.585745 146.13832 574.585745 149.534153 C 574.585745 151.23207 575.16387 153.362279 576.32012 155.929987 C 577.523245 158.456029 579.387829 159.716446 581.908662 159.716446 C 585.137829 159.716446 588.288871 158.825821 591.351371 157.049779 C 594.413871 155.268529 597.085746 152.88832 599.361788 149.903945 C 601.63783 146.924778 603.460747 143.528945 604.82533 139.721653 C 606.189914 135.914361 606.872205 132.065403 606.872205 128.174777 C 606.872205 122.91436 607.372205 117.700818 608.366997 112.523735 C 609.398247 107.346651 611.054497 102.732068 613.330539 98.674776 C 615.648247 94.575817 618.632623 91.268525 622.273248 88.742484 C 625.919081 86.174775 630.366998 84.888317 635.627415 84.888317 C 640.54929 84.888317 645.210749 85.695609 649.596166 87.310192 C 653.986791 88.924775 657.83575 91.226859 661.14825 94.206026 C 664.46075 97.185192 667.08575 100.789359 669.033667 105.008109 C 670.981584 109.232068 671.950334 113.888318 671.950334 118.982069 C 671.950334 124.237277 670.77325 129.081027 668.413875 133.513319 C 666.0545 137.898736 663.132625 142.018528 659.658666 145.872695 C 656.179499 149.679987 652.393041 153.320612 648.294082 156.799779 C 644.23679 160.237279 640.471165 163.648737 636.991998 167.044571 C 633.512832 170.440404 630.596165 173.877905 628.23679 177.351863 C 625.877415 180.83103 624.695123 184.429988 624.695123 188.159155 C 624.695123 191.054989 626.33054 193.789364 629.601373 196.357072 C 632.913873 198.877906 636.866998 201.383114 641.460749 203.867489 C 646.059707 206.310198 650.632624 208.815406 655.184708 211.383115 C 659.778458 213.909157 663.340958 216.67999 665.867 219.706032 C 669.590958 224.299782 672.715959 229.471657 675.242 235.226866 C 677.809709 240.982075 679.090959 246.84145 679.090959 252.799784 C 679.090959 256.690409 678.408667 260.419576 677.044084 263.976867 C 675.721167 267.539368 673.52325 270.643534 670.46075 273.294576 C 667.39825 275.903951 663.445125 277.97166 658.601375 279.50291 C 653.799291 281.03416 647.919082 281.799785 640.965957 281.799785 C 634.17429 281.799785 628.403456 280.706035 623.643039 278.508118 C 618.919081 276.273743 614.986789 273.419576 611.840956 269.940409 C 608.695122 266.461243 606.064914 262.570617 603.955538 258.268534 C 601.846163 253.919575 599.98158 249.633117 598.366997 245.414367 C 596.752413 241.190408 595.13783 237.133116 593.523246 233.242491 C 591.908663 229.310199 590.002413 226.159157 587.809704 223.799782 C 586.773246 222.601865 585.825329 221.96124 584.955538 221.877907 C 584.127412 221.794574 583.465954 221.752907 582.965954 221.752907 Z M 780.601381 219.206032 C 780.601381 213.950823 778.512839 209.581031 774.330547 206.101865 C 770.189922 202.627906 764.97638 199.502906 758.684713 196.726864 C 752.434713 193.914364 745.663879 191.034155 738.37742 188.096655 C 731.090962 185.117489 724.304503 181.388322 718.007628 176.919571 C 711.757627 172.403946 706.544085 166.877904 702.361793 160.336237 C 698.221168 153.799779 696.15346 145.518528 696.15346 135.497694 C 696.15346 128.211236 698.471168 121.940402 703.106585 116.685193 C 707.783669 111.424776 713.476377 107.16436 720.184711 103.893526 C 726.887836 100.581026 734.007628 98.159151 741.544087 96.627901 C 749.080546 95.096651 755.721171 94.331026 761.47638 94.331026 C 770.835755 94.331026 780.377422 95.096651 790.106589 96.627901 C 799.872215 98.159151 808.689924 100.747693 816.559716 104.388318 C 824.465966 108.034151 830.903467 112.956027 835.872217 119.169569 C 840.877425 125.336236 843.382634 133.159153 843.382634 142.643528 C 843.382634 145.206028 843.137842 148.065403 842.637842 151.211237 C 842.14305 154.315404 841.252425 157.273737 839.971175 160.091446 C 838.684717 162.862279 836.9868 165.179988 834.877425 167.044571 C 832.762842 168.909154 830.096175 169.841446 826.867008 169.841446 C 825.002425 169.841446 822.788883 169.799779 820.221174 169.716446 C 817.695133 169.633113 815.294091 169.216446 813.018049 168.471654 C 810.742007 167.685196 808.835757 166.508113 807.304507 164.935196 C 805.773257 163.320612 805.007632 160.982071 805.007632 157.914362 C 805.007632 151.997695 802.960757 147.940403 798.861798 145.747695 C 794.804506 143.508111 789.731589 142.393528 783.648256 142.393528 C 779.049297 142.393528 775.82013 143.242486 773.960755 144.940403 C 772.096172 146.63832 771.16388 148.747695 771.16388 151.273737 C 771.16388 151.810195 771.247214 152.32582 771.41388 152.82582 C 771.580547 153.320612 771.742005 153.737279 771.908672 154.065404 C 774.309714 158.825821 778.101381 163.028946 783.273256 166.674779 C 788.450339 170.315404 794.242006 173.794571 800.658673 177.107071 C 807.117007 180.414363 813.742007 183.726863 820.533674 187.039364 C 827.320133 190.351864 833.512842 194.138322 839.101384 198.403948 C 844.689926 202.627906 849.304509 207.450823 852.945134 212.872698 C 856.590968 218.294574 858.413885 224.732074 858.413885 232.185199 C 858.413885 242.367491 855.533676 251.023742 849.778467 258.143534 C 844.023259 265.263326 836.820134 271.122701 828.169091 275.716451 C 819.518049 280.268535 810.262841 283.601868 800.413882 285.711244 C 790.601381 287.825827 781.617006 288.87791 773.460755 288.87791 C 767.872213 288.87791 762.059713 288.758119 756.012838 288.508119 C 750.012837 288.258119 744.070129 287.575827 738.18992 286.456035 C 732.356587 285.383119 726.804503 283.768535 721.549294 281.612285 C 716.294086 279.50291 711.471169 276.586243 707.080544 272.857076 C 704.018043 270.331034 701.242002 267.164368 698.757627 263.357076 C 696.314918 259.549784 694.205543 255.534159 692.424293 251.3102 C 690.643043 247.044575 689.278459 242.638325 688.325334 238.086241 C 687.419084 233.487283 686.960751 229.143532 686.960751 225.044574 C 686.960751 217.424782 689.424293 211.258115 694.351376 206.539365 C 699.27846 201.778948 705.549294 199.398739 713.163877 199.398739 C 721.486794 199.398739 728.81492 200.971656 735.148253 204.117489 C 741.523254 207.221656 747.007629 210.987281 751.606588 215.419573 C 754.627421 218.440407 757.070129 220.758115 758.929505 222.372699 C 760.835755 223.987282 762.492005 225.190407 763.898255 225.976866 C 765.346172 226.721657 766.715963 227.174782 767.997213 227.341449 C 769.283672 227.508116 770.689922 227.591449 772.221172 227.591449 C 774.085755 227.591449 775.94513 227.049782 777.809714 225.976866 C 779.674297 224.857074 780.601381 222.601865 780.601381 219.206032 Z M 949.215972 98.674776 C 961.429515 98.674776 972.398265 101.862276 982.127432 108.237276 C 991.898266 114.57061 1000.117017 123.081027 1006.783684 133.763319 C 1013.486809 144.440403 1018.663893 156.820612 1022.304518 170.893529 C 1025.992018 184.971655 1027.83056 199.810198 1027.83056 215.419573 C 1027.83056 228.461241 1026.29931 239.346658 1023.23681 248.081033 C 1020.174309 256.815409 1015.455559 263.857076 1009.080559 269.195618 C 1002.747225 274.53416 994.653475 278.34666 984.799308 280.622702 C 974.986807 282.94041 963.377432 284.09666 949.960764 284.09666 C 934.893055 284.09666 922.101388 282.732077 911.585762 279.997702 C 901.070137 277.268535 892.544095 272.773743 886.002428 266.523743 C 879.460761 260.232076 874.700344 251.929992 871.721177 241.6227 C 868.778468 231.273741 867.309718 218.46124 867.309718 203.185198 C 867.309718 196.893531 867.559718 190.622697 868.05451 184.372697 C 869.090968 173.357071 871.92951 162.721654 876.564927 152.45082 C 881.242011 142.185195 887.184719 133.075819 894.387845 125.127902 C 901.59097 117.138318 909.887846 110.742485 919.288888 105.940401 C 928.726388 101.096651 938.700347 98.674776 949.215972 98.674776 Z M 919.226388 188.409155 C 919.226388 197.596656 921.502429 204.820615 926.054513 210.081031 C 930.648263 215.33624 938.288889 217.966449 948.971181 217.966449 C 959.153473 217.966449 966.231598 215.58624 970.205557 210.825823 C 974.179515 206.065406 976.169099 199.627906 976.169099 191.513322 C 976.169099 187.58103 975.689932 183.377905 974.736807 178.903947 C 973.830557 174.39353 972.32014 170.273738 970.205557 166.549779 C 968.096182 162.820612 965.25764 159.737279 961.700348 157.29457 C 958.137848 154.810195 953.731598 153.570612 948.471181 153.570612 C 943.544097 153.570612 939.262847 154.648737 935.617013 156.799779 C 931.976388 158.909154 928.913888 161.664362 926.429513 165.060196 C 923.986805 168.450821 922.163888 172.179988 920.960763 176.23728 C 919.804513 180.294572 919.226388 184.351863 919.226388 188.409155 Z M 919.226388 188.409155" stroke-linejoin="miter" fill="none" transform="matrix(0.75, 0, 0, 0.75, 332.560713, 271.501734)" stroke-linecap="butt"></path><g fill-opacity="1" fill="#dfd992"><g transform="translate(332.560713, 481.501724)"><g><path d="M 50.75 -95.375 C 50.75 -96.144531 50.394531 -96.75 49.6875 -97.1875 C 48.988281 -97.632812 48.160156 -97.953125 47.203125 -98.140625 C 46.253906 -98.335938 45.269531 -98.46875 44.25 -98.53125 C 43.238281 -98.59375 42.476562 -98.625 41.96875 -98.625 C 38.53125 -98.625 35.09375 -98.429688 31.65625 -98.046875 C 28.226562 -97.671875 24.796875 -97.484375 21.359375 -97.484375 C 18.441406 -97.484375 15.582031 -97.832031 12.78125 -98.53125 C 9.976562 -99.226562 7.460938 -100.304688 5.234375 -101.765625 C 3.015625 -103.234375 1.238281 -105.144531 -0.09375 -107.5 C -1.425781 -109.851562 -2.09375 -112.679688 -2.09375 -115.984375 C -2.09375 -119.160156 -1.457031 -122.050781 -0.1875 -124.65625 C 1.082031 -127.269531 2.796875 -129.53125 4.953125 -131.4375 C 7.117188 -133.34375 9.597656 -134.800781 12.390625 -135.8125 C 15.191406 -136.832031 18.117188 -137.34375 21.171875 -137.34375 C 25.628906 -137.34375 30.019531 -136.898438 34.34375 -136.015625 C 38.664062 -135.128906 43.050781 -134.6875 47.5 -134.6875 C 53.351562 -134.6875 59.109375 -135.191406 64.765625 -136.203125 C 70.421875 -137.222656 76.113281 -137.734375 81.84375 -137.734375 C 85.40625 -137.734375 88.773438 -137.414062 91.953125 -136.78125 C 95.128906 -136.144531 97.957031 -135.0625 100.4375 -133.53125 C 102.914062 -132.007812 104.882812 -129.910156 106.34375 -127.234375 C 107.8125 -124.566406 108.546875 -121.195312 108.546875 -117.125 C 108.546875 -113.1875 107.878906 -109.785156 106.546875 -106.921875 C 105.210938 -104.054688 103.523438 -101.382812 101.484375 -98.90625 C 99.453125 -96.425781 97.289062 -93.945312 95 -91.46875 C 92.707031 -88.988281 90.546875 -86.160156 88.515625 -82.984375 C 86.484375 -79.804688 84.796875 -76.050781 83.453125 -71.71875 C 82.117188 -67.394531 81.453125 -62.117188 81.453125 -55.890625 C 81.453125 -52.960938 81.546875 -50.066406 81.734375 -47.203125 C 81.929688 -44.347656 82.03125 -41.457031 82.03125 -38.53125 C 82.03125 -34.082031 81.582031 -29.882812 80.6875 -25.9375 C 79.800781 -22 78.085938 -18.1875 75.546875 -14.5 C 74.273438 -12.59375 72.585938 -10.648438 70.484375 -8.671875 C 68.390625 -6.703125 66.132812 -4.890625 63.71875 -3.234375 C 61.300781 -1.585938 58.785156 -0.222656 56.171875 0.859375 C 53.566406 1.941406 51.125 2.484375 48.84375 2.484375 C 44.644531 2.484375 40.695312 1.75 37 0.28125 C 33.3125 -1.175781 30.132812 -3.207031 27.46875 -5.8125 C 24.800781 -8.425781 22.703125 -11.546875 21.171875 -15.171875 C 19.648438 -18.796875 18.890625 -22.769531 18.890625 -27.09375 C 18.890625 -34.34375 20.539062 -41.367188 23.84375 -48.171875 C 27.15625 -54.972656 30.8125 -61.296875 34.8125 -67.140625 C 38.820312 -72.992188 42.476562 -78.304688 45.78125 -83.078125 C 49.09375 -87.847656 50.75 -91.945312 50.75 -95.375 Z M 50.75 -95.375"></path></g></g></g><g fill-opacity="1" fill="#dfd992"><g transform="translate(441.483422, 481.501724)"><g><path d="M 51.5 -138.109375 C 59.132812 -138.109375 66.925781 -137.3125 74.875 -135.71875 C 82.820312 -134.132812 90.035156 -131.59375 96.515625 -128.09375 C 103.003906 -124.601562 108.253906 -120.085938 112.265625 -114.546875 C 116.273438 -109.015625 118.085938 -102.375 117.703125 -94.625 C 117.578125 -90.425781 116.78125 -86.800781 115.3125 -83.75 C 113.851562 -80.695312 112.265625 -78.085938 110.546875 -75.921875 C 108.828125 -73.765625 107.300781 -71.953125 105.96875 -70.484375 C 104.632812 -69.023438 103.96875 -67.722656 103.96875 -66.578125 C 103.96875 -65.554688 105.238281 -64.441406 107.78125 -63.234375 C 110.320312 -62.023438 113.148438 -60.40625 116.265625 -58.375 C 119.390625 -56.34375 122.222656 -53.734375 124.765625 -50.546875 C 127.304688 -47.367188 128.578125 -43.363281 128.578125 -38.53125 C 128.578125 -30.519531 126.285156 -23.84375 121.703125 -18.5 C 117.128906 -13.15625 111.085938 -8.863281 103.578125 -5.625 C 96.078125 -2.382812 87.492188 -0.0664062 77.828125 1.328125 C 68.160156 2.734375 58.175781 3.4375 47.875 3.4375 C 44.570312 3.4375 40.410156 3.082031 35.390625 2.375 C 30.367188 1.675781 25.503906 0.40625 20.796875 -1.4375 C 16.085938 -3.28125 12.046875 -5.757812 8.671875 -8.875 C 5.304688 -11.988281 3.625 -15.898438 3.625 -20.609375 C 3.625 -25.179688 4.257812 -29.34375 5.53125 -33.09375 C 6.800781 -36.84375 8.226562 -40.816406 9.8125 -45.015625 C 11.40625 -49.210938 12.835938 -54.015625 14.109375 -59.421875 C 15.390625 -64.828125 16.03125 -71.472656 16.03125 -79.359375 C 16.03125 -83.929688 15.644531 -88.125 14.875 -91.9375 C 14.113281 -95.757812 13.253906 -99.226562 12.296875 -102.34375 C 11.347656 -105.457031 10.457031 -108.378906 9.625 -111.109375 C 8.800781 -113.847656 8.390625 -116.488281 8.390625 -119.03125 C 8.390625 -121.320312 9.25 -123.613281 10.96875 -125.90625 C 12.6875 -128.195312 15.328125 -130.265625 18.890625 -132.109375 C 22.453125 -133.953125 26.929688 -135.410156 32.328125 -136.484375 C 37.734375 -137.566406 44.125 -138.109375 51.5 -138.109375 Z M 63.71875 -105.5 C 61.8125 -105.5 60.1875 -105.082031 58.84375 -104.25 C 57.507812 -103.425781 56.429688 -102.441406 55.609375 -101.296875 C 54.785156 -100.148438 54.210938 -98.972656 53.890625 -97.765625 C 53.578125 -96.554688 53.421875 -95.507812 53.421875 -94.625 C 53.421875 -90.300781 54.054688 -87.023438 55.328125 -84.796875 C 56.597656 -82.566406 58.757812 -81.453125 61.8125 -81.453125 C 63.207031 -81.453125 64.726562 -81.738281 66.375 -82.3125 C 68.03125 -82.882812 69.523438 -83.742188 70.859375 -84.890625 C 72.203125 -86.035156 73.316406 -87.46875 74.203125 -89.1875 C 75.097656 -90.90625 75.546875 -92.90625 75.546875 -95.1875 C 75.546875 -96.59375 75.191406 -97.898438 74.484375 -99.109375 C 73.785156 -100.316406 72.863281 -101.394531 71.71875 -102.34375 C 70.582031 -103.300781 69.3125 -104.066406 67.90625 -104.640625 C 66.507812 -105.210938 65.113281 -105.5 63.71875 -105.5 Z M 54.171875 -47.875 C 54.171875 -44.957031 54.550781 -42.828125 55.3125 -41.484375 C 56.082031 -40.148438 56.910156 -39.484375 57.796875 -39.484375 C 58.941406 -39.484375 60.40625 -39.546875 62.1875 -39.671875 C 63.96875 -39.804688 65.71875 -40.125 67.4375 -40.625 C 69.15625 -41.132812 70.617188 -41.863281 71.828125 -42.8125 C 73.035156 -43.769531 73.640625 -45.015625 73.640625 -46.546875 C 73.640625 -48.578125 73.066406 -50.226562 71.921875 -51.5 C 70.773438 -52.78125 69.40625 -53.800781 67.8125 -54.5625 C 66.226562 -55.320312 64.515625 -55.828125 62.671875 -56.078125 C 60.828125 -56.335938 59.140625 -56.46875 57.609375 -56.46875 C 56.085938 -56.46875 55.164062 -56.050781 54.84375 -55.21875 C 54.53125 -54.394531 54.304688 -51.945312 54.171875 -47.875 Z M 54.171875 -47.875"></path></g></g></g><g fill-opacity="1" fill="#dfd992"><g transform="translate(572.15251, 481.501724)"><g><path d="M 64.671875 -137.921875 C 68.992188 -137.921875 73.726562 -137.664062 78.875 -137.15625 C 84.03125 -136.644531 88.925781 -135.722656 93.5625 -134.390625 C 98.207031 -133.054688 102.210938 -131.210938 105.578125 -128.859375 C 108.953125 -126.503906 110.957031 -123.546875 111.59375 -119.984375 C 112.226562 -116.679688 112.609375 -112.738281 112.734375 -108.15625 C 112.867188 -103.582031 113.570312 -98.242188 114.84375 -92.140625 C 115.726562 -87.554688 117.316406 -83.328125 119.609375 -79.453125 C 121.898438 -75.578125 124.222656 -71.695312 126.578125 -67.8125 C 128.929688 -63.9375 130.992188 -59.898438 132.765625 -55.703125 C 134.546875 -51.503906 135.4375 -46.863281 135.4375 -41.78125 C 135.4375 -35.550781 134.863281 -29.796875 133.71875 -24.515625 C 132.582031 -19.234375 130.613281 -14.75 127.8125 -11.0625 C 125.007812 -7.375 121.351562 -4.476562 116.84375 -2.375 C 112.332031 -0.28125 106.640625 0.765625 99.765625 0.765625 C 95.953125 0.765625 92.613281 0.128906 89.75 -1.140625 C 86.894531 -2.410156 84.507812 -4.0625 82.59375 -6.09375 C 80.6875 -8.132812 79.285156 -10.425781 78.390625 -12.96875 C 77.503906 -15.507812 77.0625 -18.054688 77.0625 -20.609375 C 77.0625 -22.003906 77.15625 -23.523438 77.34375 -25.171875 C 77.539062 -26.828125 77.445312 -28.382812 77.0625 -29.84375 C 76.6875 -31.3125 75.894531 -32.550781 74.6875 -33.5625 C 73.476562 -34.582031 71.535156 -35.09375 68.859375 -35.09375 C 63.390625 -35.09375 59.859375 -34.140625 58.265625 -32.234375 C 56.679688 -30.328125 55.890625 -27.976562 55.890625 -25.1875 C 55.890625 -21.238281 55.316406 -17.578125 54.171875 -14.203125 C 53.023438 -10.835938 51.46875 -7.945312 49.5 -5.53125 C 47.53125 -3.113281 45.207031 -1.207031 42.53125 0.1875 C 39.863281 1.59375 37.066406 2.296875 34.140625 2.296875 C 23.078125 2.296875 14.648438 0.0390625 8.859375 -4.46875 C 3.078125 -8.988281 0.1875 -16.71875 0.1875 -27.65625 C 0.1875 -30.457031 0.757812 -33.257812 1.90625 -36.0625 L 2.484375 -36.8125 C 3.878906 -39.738281 5.4375 -42.914062 7.15625 -46.34375 C 8.875 -49.78125 10.554688 -53.25 12.203125 -56.75 C 13.859375 -60.25 15.382812 -63.78125 16.78125 -67.34375 C 18.1875 -70.90625 19.332031 -74.210938 20.21875 -77.265625 C 21.363281 -81.460938 22.253906 -85.40625 22.890625 -89.09375 C 23.523438 -92.78125 24.128906 -96.398438 24.703125 -99.953125 C 25.273438 -103.515625 25.972656 -107.109375 26.796875 -110.734375 C 27.628906 -114.359375 28.867188 -118.144531 30.515625 -122.09375 C 31.921875 -125.519531 33.863281 -128.28125 36.34375 -130.375 C 38.820312 -132.476562 41.617188 -134.070312 44.734375 -135.15625 C 47.847656 -136.238281 51.117188 -136.96875 54.546875 -137.34375 C 57.984375 -137.726562 61.359375 -137.921875 64.671875 -137.921875 Z M 60.09375 -63.328125 C 60.09375 -62.953125 60.503906 -62.632812 61.328125 -62.375 C 62.160156 -62.125 63.082031 -61.898438 64.09375 -61.703125 C 65.113281 -61.515625 66.128906 -61.359375 67.140625 -61.234375 C 68.160156 -61.109375 68.863281 -61.046875 69.25 -61.046875 C 70.644531 -61.046875 72.359375 -61.171875 74.390625 -61.421875 C 76.429688 -61.679688 77.707031 -62.445312 78.21875 -63.71875 C 78.59375 -64.476562 78.71875 -65.71875 78.59375 -67.4375 C 78.46875 -69.15625 78.304688 -71.03125 78.109375 -73.0625 C 77.921875 -75.09375 77.695312 -77.1875 77.4375 -79.34375 C 77.1875 -81.507812 77.0625 -83.484375 77.0625 -85.265625 C 77.0625 -89.335938 76.425781 -92.234375 75.15625 -93.953125 C 73.882812 -95.671875 72.742188 -96.53125 71.734375 -96.53125 C 71.097656 -96.53125 70.332031 -96.304688 69.4375 -95.859375 C 68.550781 -95.410156 67.660156 -94.738281 66.765625 -93.84375 C 65.878906 -92.957031 65.148438 -91.816406 64.578125 -90.421875 C 64.003906 -89.023438 63.71875 -87.375 63.71875 -85.46875 C 63.71875 -83.8125 63.492188 -81.898438 63.046875 -79.734375 C 62.597656 -77.578125 62.148438 -75.414062 61.703125 -73.25 C 61.265625 -71.09375 60.851562 -69.125 60.46875 -67.34375 C 60.09375 -65.5625 59.96875 -64.222656 60.09375 -63.328125 Z M 60.09375 -63.328125"></path></g></g></g><g fill-opacity="1" fill="#dfd992"><g transform="translate(710.451926, 481.501724)"><g><path d="M 59.328125 -43.6875 C 57.929688 -43.6875 56.847656 -43.300781 56.078125 -42.53125 C 55.316406 -41.769531 54.773438 -40.816406 54.453125 -39.671875 C 54.140625 -38.535156 53.953125 -37.328125 53.890625 -36.046875 C 53.828125 -34.773438 53.796875 -33.570312 53.796875 -32.4375 C 53.796875 -29.382812 54.015625 -26.363281 54.453125 -23.375 C 54.898438 -20.382812 55.125 -17.425781 55.125 -14.5 C 55.125 -8.007812 53.34375 -3.269531 49.78125 -0.28125 C 46.226562 2.707031 41.332031 4.203125 35.09375 4.203125 C 30.769531 4.203125 26.765625 3.46875 23.078125 2 C 19.390625 0.539062 16.207031 -1.488281 13.53125 -4.09375 C 10.863281 -6.707031 8.765625 -9.828125 7.234375 -13.453125 C 5.710938 -17.078125 4.953125 -21.050781 4.953125 -25.375 C 4.953125 -27.40625 5.144531 -29.375 5.53125 -31.28125 C 6.039062 -34.96875 6.800781 -38.492188 7.8125 -41.859375 C 8.832031 -45.234375 9.851562 -48.671875 10.875 -52.171875 C 11.894531 -55.671875 12.785156 -59.234375 13.546875 -62.859375 C 14.304688 -66.484375 14.6875 -70.332031 14.6875 -74.40625 C 14.6875 -78.46875 14.238281 -82.179688 13.34375 -85.546875 C 12.457031 -88.921875 11.503906 -92.226562 10.484375 -95.46875 C 9.472656 -98.71875 8.519531 -102.023438 7.625 -105.390625 C 6.738281 -108.765625 6.296875 -112.421875 6.296875 -116.359375 C 6.296875 -121.066406 7.21875 -124.882812 9.0625 -127.8125 C 10.90625 -130.738281 13.289062 -132.992188 16.21875 -134.578125 C 19.144531 -136.171875 22.351562 -137.253906 25.84375 -137.828125 C 29.34375 -138.398438 32.8125 -138.6875 36.25 -138.6875 C 39.425781 -138.6875 42.222656 -138.019531 44.640625 -136.6875 C 47.054688 -135.351562 49.125 -133.570312 50.84375 -131.34375 C 52.5625 -129.113281 53.863281 -126.535156 54.75 -123.609375 C 55.632812 -120.691406 56.078125 -117.707031 56.078125 -114.65625 C 56.078125 -112.101562 55.566406 -109.300781 54.546875 -106.25 C 53.535156 -103.195312 53.03125 -100.398438 53.03125 -97.859375 C 53.03125 -96.585938 53.472656 -95 54.359375 -93.09375 C 55.253906 -91.1875 56.65625 -90.234375 58.5625 -90.234375 C 60.976562 -90.234375 63.332031 -90.898438 65.625 -92.234375 C 67.914062 -93.566406 69.914062 -95.347656 71.625 -97.578125 C 73.34375 -99.804688 74.710938 -102.347656 75.734375 -105.203125 C 76.753906 -108.066406 77.265625 -110.960938 77.265625 -113.890625 C 77.265625 -117.828125 77.644531 -121.734375 78.40625 -125.609375 C 79.164062 -129.492188 80.40625 -132.960938 82.125 -136.015625 C 83.84375 -139.066406 86.066406 -141.546875 88.796875 -143.453125 C 91.535156 -145.359375 94.875 -146.3125 98.8125 -146.3125 C 102.5 -146.3125 105.992188 -145.707031 109.296875 -144.5 C 112.609375 -143.289062 115.503906 -141.570312 117.984375 -139.34375 C 120.460938 -137.125 122.429688 -134.425781 123.890625 -131.25 C 125.359375 -128.070312 126.09375 -124.570312 126.09375 -120.75 C 126.09375 -116.8125 125.203125 -113.1875 123.421875 -109.875 C 121.640625 -106.570312 119.445312 -103.488281 116.84375 -100.625 C 114.238281 -97.769531 111.410156 -95.035156 108.359375 -92.421875 C 105.304688 -89.816406 102.472656 -87.242188 99.859375 -84.703125 C 97.253906 -82.160156 95.0625 -79.582031 93.28125 -76.96875 C 91.5 -74.363281 90.609375 -71.660156 90.609375 -68.859375 C 90.609375 -66.703125 91.847656 -64.671875 94.328125 -62.765625 C 96.804688 -60.859375 99.765625 -58.984375 103.203125 -57.140625 C 106.640625 -55.296875 110.070312 -53.414062 113.5 -51.5 C 116.9375 -49.59375 119.609375 -47.5 121.515625 -45.21875 C 124.316406 -41.78125 126.671875 -37.898438 128.578125 -33.578125 C 130.484375 -29.253906 131.4375 -24.863281 131.4375 -20.40625 C 131.4375 -17.488281 130.925781 -14.691406 129.90625 -12.015625 C 128.894531 -9.347656 127.242188 -7.023438 124.953125 -5.046875 C 122.660156 -3.078125 119.703125 -1.519531 116.078125 -0.375 C 112.453125 0.757812 108.035156 1.328125 102.828125 1.328125 C 97.734375 1.328125 93.40625 0.503906 89.84375 -1.140625 C 86.289062 -2.796875 83.335938 -4.925781 80.984375 -7.53125 C 78.628906 -10.144531 76.65625 -13.070312 75.0625 -16.3125 C 73.476562 -19.550781 72.082031 -22.757812 70.875 -25.9375 C 69.664062 -29.125 68.457031 -32.175781 67.25 -35.09375 C 66.039062 -38.019531 64.609375 -40.375 62.953125 -42.15625 C 62.191406 -43.050781 61.492188 -43.53125 60.859375 -43.59375 C 60.222656 -43.65625 59.710938 -43.6875 59.328125 -43.6875 Z M 59.328125 -43.6875"></path></g></g></g><g fill-opacity="1" fill="#dfd992"><g transform="translate(845.126906, 481.501724)"><g><path d="M 72.875 -45.59375 C 72.875 -49.53125 71.316406 -52.800781 68.203125 -55.40625 C 65.085938 -58.019531 61.175781 -60.375 56.46875 -62.46875 C 51.757812 -64.570312 46.671875 -66.734375 41.203125 -68.953125 C 35.734375 -71.179688 30.644531 -73.976562 25.9375 -77.34375 C 21.238281 -80.71875 17.328125 -84.851562 14.203125 -89.75 C 11.085938 -94.644531 9.53125 -100.847656 9.53125 -108.359375 C 9.53125 -113.828125 11.28125 -118.53125 14.78125 -122.46875 C 18.28125 -126.414062 22.539062 -129.628906 27.5625 -132.109375 C 32.582031 -134.585938 37.921875 -136.398438 43.578125 -137.546875 C 49.242188 -138.691406 54.238281 -139.265625 58.5625 -139.265625 C 65.5625 -139.265625 72.71875 -138.691406 80.03125 -137.546875 C 87.34375 -136.398438 93.953125 -134.457031 99.859375 -131.71875 C 105.773438 -128.988281 110.609375 -125.300781 114.359375 -120.65625 C 118.109375 -116.019531 119.984375 -110.140625 119.984375 -103.015625 C 119.984375 -101.109375 119.789062 -98.976562 119.40625 -96.625 C 119.03125 -94.269531 118.363281 -92.039062 117.40625 -89.9375 C 116.457031 -87.84375 115.1875 -86.09375 113.59375 -84.6875 C 112.007812 -83.289062 110.007812 -82.59375 107.59375 -82.59375 C 106.195312 -82.59375 104.539062 -82.625 102.625 -82.6875 C 100.71875 -82.757812 98.90625 -83.082031 97.1875 -83.65625 C 95.476562 -84.226562 94.050781 -85.117188 92.90625 -86.328125 C 91.757812 -87.535156 91.1875 -89.28125 91.1875 -91.5625 C 91.1875 -96.019531 89.660156 -99.070312 86.609375 -100.71875 C 83.554688 -102.375 79.738281 -103.203125 75.15625 -103.203125 C 71.726562 -103.203125 69.3125 -102.566406 67.90625 -101.296875 C 66.507812 -100.023438 65.8125 -98.4375 65.8125 -96.53125 C 65.8125 -96.144531 65.875 -95.757812 66 -95.375 C 66.132812 -95 66.265625 -94.679688 66.390625 -94.421875 C 68.171875 -90.867188 71 -87.722656 74.875 -84.984375 C 78.75 -82.253906 83.101562 -79.644531 87.9375 -77.15625 C 92.769531 -74.675781 97.726562 -72.195312 102.8125 -69.71875 C 107.90625 -67.238281 112.550781 -64.410156 116.75 -61.234375 C 120.945312 -58.054688 124.410156 -54.429688 127.140625 -50.359375 C 129.878906 -46.285156 131.25 -41.453125 131.25 -35.859375 C 131.25 -28.234375 129.085938 -21.75 124.765625 -16.40625 C 120.441406 -11.0625 115.035156 -6.671875 108.546875 -3.234375 C 102.054688 0.191406 95.125 2.695312 87.75 4.28125 C 80.375 5.875 73.632812 6.671875 67.53125 6.671875 C 63.332031 6.671875 58.972656 6.578125 54.453125 6.390625 C 49.941406 6.203125 45.492188 5.691406 41.109375 4.859375 C 36.722656 4.035156 32.554688 2.828125 28.609375 1.234375 C 24.671875 -0.347656 21.046875 -2.539062 17.734375 -5.34375 C 15.453125 -7.25 13.390625 -9.628906 11.546875 -12.484375 C 9.703125 -15.347656 8.109375 -18.367188 6.765625 -21.546875 C 5.429688 -24.734375 4.414062 -28.039062 3.71875 -31.46875 C 3.019531 -34.90625 2.671875 -38.148438 2.671875 -41.203125 C 2.671875 -46.929688 4.515625 -51.570312 8.203125 -55.125 C 11.890625 -58.6875 16.59375 -60.46875 22.3125 -60.46875 C 28.550781 -60.46875 34.050781 -59.289062 38.8125 -56.9375 C 43.582031 -54.59375 47.6875 -51.765625 51.125 -48.453125 C 53.414062 -46.160156 55.257812 -44.410156 56.65625 -43.203125 C 58.050781 -41.992188 59.289062 -41.101562 60.375 -40.53125 C 61.457031 -39.957031 62.472656 -39.609375 63.421875 -39.484375 C 64.378906 -39.359375 65.429688 -39.296875 66.578125 -39.296875 C 67.972656 -39.296875 69.367188 -39.707031 70.765625 -40.53125 C 72.171875 -41.363281 72.875 -43.050781 72.875 -45.59375 Z M 72.875 -45.59375"></path></g></g></g><g fill-opacity="1" fill="#dfd992"><g transform="translate(979.03889, 481.501724)"><g><path d="M 65.4375 -136.015625 C 74.59375 -136.015625 82.828125 -133.628906 90.140625 -128.859375 C 97.453125 -124.085938 103.617188 -117.695312 108.640625 -109.6875 C 113.660156 -101.675781 117.535156 -92.390625 120.265625 -81.828125 C 123.003906 -71.273438 124.375 -60.148438 124.375 -48.453125 C 124.375 -38.660156 123.226562 -30.488281 120.9375 -23.9375 C 118.65625 -17.382812 115.128906 -12.101562 110.359375 -8.09375 C 105.585938 -4.09375 99.515625 -1.238281 92.140625 0.46875 C 84.765625 2.1875 76.050781 3.046875 66 3.046875 C 54.6875 3.046875 45.085938 2.03125 37.203125 0 C 29.316406 -2.03125 22.925781 -5.398438 18.03125 -10.109375 C 13.132812 -14.816406 9.570312 -21.046875 7.34375 -28.796875 C 5.113281 -36.554688 4 -46.160156 4 -57.609375 C 4 -62.316406 4.191406 -67.023438 4.578125 -71.734375 C 5.335938 -79.992188 7.46875 -87.96875 10.96875 -95.65625 C 14.46875 -103.351562 18.921875 -110.191406 24.328125 -116.171875 C 29.734375 -122.148438 35.960938 -126.953125 43.015625 -130.578125 C 50.078125 -134.203125 57.550781 -136.015625 65.4375 -136.015625 Z M 42.921875 -68.671875 C 42.921875 -61.804688 44.632812 -56.398438 48.0625 -52.453125 C 51.5 -48.515625 57.222656 -46.546875 65.234375 -46.546875 C 72.867188 -46.546875 78.179688 -48.328125 81.171875 -51.890625 C 84.160156 -55.453125 85.65625 -60.285156 85.65625 -66.390625 C 85.65625 -69.316406 85.304688 -72.460938 84.609375 -75.828125 C 83.910156 -79.203125 82.765625 -82.285156 81.171875 -85.078125 C 79.578125 -87.878906 77.445312 -90.203125 74.78125 -92.046875 C 72.113281 -93.890625 68.804688 -94.8125 64.859375 -94.8125 C 61.171875 -94.8125 57.957031 -94.015625 55.21875 -92.421875 C 52.488281 -90.835938 50.203125 -88.769531 48.359375 -86.21875 C 46.515625 -83.675781 45.144531 -80.878906 44.25 -77.828125 C 43.363281 -74.773438 42.921875 -71.722656 42.921875 -68.671875 Z M 42.921875 -68.671875"></path></g></g></g></svg>