<svg version="1.1" xmlns="http://www.w3.org/2000/svg" xmlns:xlink="http://www.w3.org/1999/xlink" width="85.24505" height="62.96022" viewBox="0,0,85.24505,62.96022"><g transform="translate(-277.45995,-148.55751)"><g data-paper-data="{&quot;isPaintingLayer&quot;:true}" fill-rule="nonzero" stroke-linejoin="miter" stroke-miterlimit="10" stroke-dasharray="" stroke-dashoffset="0" style="mix-blend-mode: normal"><path d="M278.25,170.56297c0,-7.11178 5.63428,-24.30674 20.66089,-20.55074c10.14221,2.53511 14.89934,7.14266 17.01534,11.62956c1.81763,3.85421 1.38063,7.83784 4.24044,7.83784c5.07034,0 -0.64688,-15.35634 25.40997,-19.86253c3.91969,-0.67786 9.26797,2.66506 12.46784,7.80201c2.78896,4.47728 3.70552,10.47763 3.70552,14.31052c0,7.11926 -6.12428,19.29007 -14.94084,27.51598c-7.65535,7.14249 -17.62757,10.90069 -23.80916,10.90069c-6.19452,0 -19.65868,-2.20061 -28.7158,-9.6356c-10.39031,-8.52941 -16.0342,-22.84139 -16.0342,-29.94773z" fill="#ff9ae2" stroke="#ff9ae2" stroke-width="1" stroke-linecap="butt"/><g fill="none" stroke="#b96fa4" stroke-width="2" stroke-linecap="butt"><path d="M321.62709,210.51773c-23.84055,0 -43.16714,-19.39993 -43.16714,-43.24049c0,-23.84055 35.82907,-24.38944 41.22462,3.02169"/><path d="M320.48038,170.29894c5.39556,-27.41113 41.22462,-26.86225 41.22462,-3.0217c0,23.84055 -19.32659,43.24049 -43.16714,43.24049" data-paper-data="{&quot;index&quot;:null}"/></g><path d="M300.30295,176.70043c0,-6.35127 1.86548,-11.5 4.16666,-11.5c2.30118,0 4.16667,5.14873 4.16667,11.5c0,6.35127 -1.86548,11.5 -4.16667,11.5c-2.30118,0 -4.16666,-5.14873 -4.16666,-11.5z" fill="#000000" stroke="none" stroke-width="0" stroke-linecap="butt"/><path d="M330.30295,176.70043c0,-6.35127 1.86548,-11.5 4.16666,-11.5c2.30118,0 4.16667,5.14873 4.16667,11.5c0,6.35127 -1.86548,11.5 -4.16667,11.5c-2.30118,0 -4.16666,-5.14873 -4.16666,-11.5z" fill="#000000" stroke="none" stroke-width="0" stroke-linecap="butt"/><path d="M315.57362,195.20588c-2.87513,-2.44462 -3.22412,-6.75714 -0.7795,-9.63226c2.44462,-2.87513 6.75714,-3.22412 9.63226,-0.7795c2.87513,2.44462 3.22412,6.75714 0.7795,9.63226c-2.44462,2.87513 -6.75714,3.22412 -9.63226,0.7795z" fill="#ff9ae2" stroke="#b96fa4" stroke-width="1.5" stroke-linecap="butt"/><path d="M317.81372,188.26562v4.22222" fill="none" stroke="#b96fa4" stroke-width="1.5" stroke-linecap="round"/><path d="M322.03594,188.26563v4.22222" fill="none" stroke="#b96fa4" stroke-width="1.5" stroke-linecap="round"/><path d="M307.61111,201.55556c0,0 8.03218,2 12.09149,2c4.19545,0 12.68628,-2 12.68628,-2" fill="none" stroke="#b96fa4" stroke-width="1.5" stroke-linecap="round"/></g></g></svg>