<svg version="1.1" xmlns="http://www.w3.org/2000/svg" xmlns:xlink="http://www.w3.org/1999/xlink" width="749.24925" height="430.93093" viewBox="0,0,749.24925,430.93093"><g transform="translate(80.11496,28.12218)"><g data-paper-data="{&quot;isPaintingLayer&quot;:true}" fill-rule="nonzero" stroke="none" stroke-linecap="butt" stroke-linejoin="miter" stroke-miterlimit="10" stroke-dasharray="" stroke-dashoffset="0" style="mix-blend-mode: normal"><path d="M-80.11496,402.80875v-430.93093h749.24925v430.93093z" fill="#000000" stroke-width="0"/><path d="M159.15754,253.74321c-2.5,0 -2.5,-2.5 -2.5,-2.5v-1c0.01293,-2.54934 -0.64233,-5.05751 -0.9676,-7.58666c-3.47875,0.67818 -6.97236,1.30896 -10.44392,1.75388c0.44034,3.09884 0.53557,6.03415 -0.06044,9.37091l1.76253,0.09016c0,0 2.37171,0.79057 1.58114,3.16228c-0.79057,2.37171 -3.16228,1.58114 -3.16228,1.58114l-4.23747,-1.90984c-0.3424,-4.02632 -0.39628,-7.87134 -0.90029,-11.77875c-5.65725,0.47217 -11.38408,0.67514 -17.10737,0.75972c0.05953,0.07678 0.11406,0.1574 0.16232,0.24283c1.91127,3.38302 1.35028,5.45073 1.37337,9.31433l0,3.91215c0.93648,0.74981 2.03493,1.30622 3.01411,2.00687c0.80233,0.57411 1.60482,1.14817 2.40251,1.72875c8.65448,-0.36025 17.30282,-0.10826 25.9601,-0.58922c1.10142,-0.06119 2.22068,-0.01584 3.33902,0.02676c2.02578,-1.01336 4.05666,-2.01659 6.08263,-3.02958c0.84768,-0.42171 6.72156,-3.09709 7.50173,-4.33677c0.72885,-1.15814 0.45604,-2.69873 0.71219,-4.04294c0.29591,-1.55287 0.78252,-3.07501 0.94383,-4.64757c0.16196,-1.57889 -0.03039,-3.17514 0.02135,-4.76147c0.03131,-0.95993 0.75191,-2.98669 -0.20193,-2.87425c-2.93188,0.34561 -5.71987,1.48307 -8.62173,2.02582c-1.56386,0.2925 -3.13841,0.60343 -4.72009,0.9195c0.39464,2.90852 0.55415,5.87309 0.56628,8.66195v1c0,0 0,2.5 -2.5,2.5zM154.78583,236.03378c0,0 -0.22156,-0.66467 -0.07823,-1.40756c-1.59637,-0.22438 -3.08143,-0.57292 -4.31837,-1.03073c-3.05941,-1.13232 -5.3424,-3.9393 -7.535,-6.12005l-1.46447,-1.46447c0,0 -1.76777,-1.76777 0,-3.53553c1.76777,-1.76777 3.53553,0 3.53553,0l1.46447,1.46447c1.25,1.25757 3.79136,4.27237 5.84564,5.0089c3.28711,1.17855 9.63958,1.47404 12.89693,0.01428c1.25558,-0.56268 2.09039,-1.79001 3.15732,-2.65877c1.89634,-1.54412 4.93457,-3.1111 5.29573,-6.01578c0.17271,-1.38906 -0.57222,-2.74041 -0.85833,-4.11062c-0.57811,-3.28282 -1.25944,-6.54912 -1.73433,-9.84846c-0.18353,-1.27509 0.38487,-2.81907 -0.39496,-3.84444c-0.77982,-1.02538 -2.41953,-0.89004 -3.59926,-1.40749c-1.5263,-0.66946 -3.01712,-1.41744 -4.51368,-2.15097c-1.28493,-0.6298 -2.41694,-1.71435 -3.83022,-1.93874c-1.41327,-0.22439 -2.82554,0.45621 -4.24235,0.65705c-3.30034,0.46784 -6.60543,0.90443 -9.91589,1.2943c-1.40638,0.16563 -2.94232,-0.16344 -4.22602,0.43443c-2.79427,1.30142 -4.4171,4.305 -6.73773,6.33387c-1.00353,0.87736 -2.54997,1.32225 -3.08671,2.5424c-0.53674,1.22014 0.20143,2.6604 0.21163,3.99334c0.01059,1.38383 -0.44591,2.79722 -0.14932,4.14894c0.14037,0.63974 0.94535,0.90997 1.36895,1.4095c1.40178,1.65305 2.98993,3.46408 5.07094,4.06986c0,0 2.37171,0.79057 1.58114,3.16228c-0.79057,2.37171 -3.16228,1.58114 -3.16228,1.58114c-1.20626,-0.43561 -2.60044,-0.52721 -3.61878,-1.30682c-1.50464,-1.15191 -2.50743,-2.84281 -3.71213,-4.30553c-0.77653,-0.94284 -1.90912,-1.72952 -2.2292,-2.90829c-0.51126,-1.88281 -0.15957,-3.9001 -0.14932,-5.85106c0.01053,-2.00343 -0.59509,-4.17279 0.21163,-6.00666c0.80672,-1.83387 2.83427,-2.83292 4.28483,-4.21485c0.60299,-0.57446 7.60999,-6.99648 8.00535,-7.18062c1.73882,-0.80985 3.79064,-0.59106 5.68987,-0.85986c3.30044,-0.46712 6.60661,-0.8945 9.91589,-1.2943c1.88933,-0.22825 3.79401,-0.93567 5.67353,-0.63725c1.87953,0.29841 3.47143,1.56098 5.19715,2.3632c1.12102,0.52112 9.49452,4.4573 9.94179,5.04541c1.24128,1.63214 0.93354,3.99404 1.33938,6.00401c0.65973,3.2674 1.15622,6.56564 1.73433,9.84846c0.292,1.91261 1.20548,3.83132 0.876,5.73784c-0.84116,4.86737 -3.68607,6.40368 -7.09392,9.14381c-1.40285,1.12798 -2.60143,2.6095 -4.25063,3.33095c-2.02545,0.88603 -4.73312,1.32674 -7.50871,1.38906c0.16058,0.52362 0.3095,1.0564 0.44742,1.5966c3.21293,-0.59165 6.42583,-1.18148 9.6429,-1.73665c2.0322,-0.35069 4.1217,-1.4405 6.11765,-0.92186c4.38891,1.14044 3.71472,4.59664 3.75289,7.6941c0.04293,3.48319 -0.31249,6.9954 -1.07036,10.39541c-0.42788,1.91958 -0.32712,4.08491 -1.40397,5.73059c-0.0603,0.09215 -0.12504,0.18382 -0.19394,0.275c8.46175,-1.72618 16.8869,-3.46813 25.29411,-5.59342c4.56681,-1.15446 9.85867,-1.84244 14.23409,-3.57662c5.55278,-2.20082 10.22228,-6.20602 14.78938,-9.91228c2.52735,-2.05098 5.26612,-3.8644 7.58906,-6.1443c5.78701,-5.67979 10.37831,-12.67751 14.75285,-19.43817c1.75027,-2.70496 3.89389,-5.1893 5.26966,-8.10263c1.36507,-2.89068 1.90386,-6.10355 2.86651,-9.15195c0.95532,-3.02519 2.48033,-5.91819 2.91081,-9.06129c0.38522,-2.81267 -0.51637,-5.65439 -0.75111,-8.4836c-0.25973,-3.13034 0.26325,-6.41046 -0.7119,-9.39635c-0.45776,-1.40166 -1.5861,-2.48627 -2.36398,-3.73891c-1.75849,-2.83175 -3.47785,-5.68762 -5.2145,-8.53282c-6.65111,-10.89664 -15.75767,-20.56441 -23.76205,-30.50494c-3.17072,-3.95853 -6.66317,-6.62761 -10.47135,-9.94362c-1.01428,-0.8832 -1.76179,-2.14072 -2.97055,-2.7304c-0.56223,-0.27428 -1.2165,0.30369 -1.83673,0.38522c-1.65245,0.21722 -3.3144,0.35581 -4.97392,0.51004c-1.44054,0.13388 -2.97673,-0.16843 -4.32577,0.35424c-2.90299,1.12472 -4.95192,3.77498 -7.45448,5.62688c-6.69868,4.95703 -13.39736,9.91405 -20.09605,14.87108c-4.01921,2.97422 -8.03842,5.94843 -12.05763,8.92265c-1.33974,0.99141 -2.65021,2.02363 -4.01921,2.97422c-0.93415,0.64864 -2.27201,0.89489 -3.00632,1.71415v4.25046c0,1.38071 -1.11929,2.5 -2.5,2.5c-0.69036,0 -1.31536,-0.27982 -1.76777,-0.73223l-2,-2l0.04068,-0.04068l-0.16155,-0.08908c-3.38056,-4.49739 -6.8219,-8.81808 -10.80806,-12.79917c-3.33333,-3.33333 -6.66667,-6.66667 -10,-10c-2.23421,-2.23421 -4.06029,-4.95092 -6.66369,-6.74137c-0.95368,-0.65588 -2.17866,-0.78264 -3.26237,-1.18916c-2.97917,-1.11755 -5.77163,-2.8717 -8.90063,-3.44941c-3.129,-0.57771 -6.36367,0.04328 -9.54556,0.04369c-4.31063,0.00055 -10.15809,-0.66355 -14.3488,0.44251c-5.73899,1.5147 -10.66836,6.20614 -15.12937,9.82361c-1.17682,0.95429 -2.54477,1.70711 -3.54417,2.84586c-2.77322,3.1599 -4.69201,8.29512 -6.77671,11.94335c-1.58101,2.76677 -3.58094,5.32717 -4.77691,8.28086c-0.97683,2.41247 -0.81723,5.14096 -1.24512,7.70828c-0.52917,3.17499 -1.4096,6.30856 -1.6109,9.52105c-0.16192,2.58398 0.59541,5.14377 0.88132,7.71698c0.35585,3.20263 0.32233,6.47016 1.0454,9.61032c0.64091,2.78335 2.12818,5.30115 3.18192,7.95585c3.55349,8.95234 8.00671,17.97479 13.9003,25.69204c2.92246,3.82676 6.77688,7.27357 10.05662,10.80199c5.75708,6.21461 9.99782,13.63581 14.64107,20.70952c2.48191,3.78104 5.19519,8.47793 8.49635,11.61406c2.73102,2.59449 7.91708,5.99159 11.32343,7.55113c2.79908,1.28151 5.96288,1.53392 8.94001,2.31738c3.12019,0.8211 6.15553,2.06931 9.35528,2.48328c4.67152,0.60438 9.96493,-0.02066 14.67923,-0.02066c0,0 2.5,0 2.5,2.5c0,2.5 -2.5,2.5 -2.5,2.5c-4.93017,0 -10.43714,0.61116 -15.32077,-0.02066c-0.20975,-0.02714 -9.59496,-2.50362 -9.98621,-2.60658c-0.28858,-0.07594 -9.47614,-2.4821 -9.7185,-2.59275c-3.76291,-1.71794 -9.64729,-5.58097 -12.67657,-8.44887c-9.68634,-9.17033 -14.32903,-22.86359 -23.39556,-32.58172c-3.3898,-3.64683 -7.34808,-7.21687 -10.36812,-11.17141c-6.16759,-8.07605 -10.85471,-17.51243 -14.57384,-26.88208c-1.13565,-2.86104 -2.68794,-5.59338 -3.38622,-8.59133c-0.05626,-0.24154 -1.11397,-9.82403 -1.16323,-10.26735c-0.31121,-2.80092 -1.07064,-5.59177 -0.91005,-8.40535c0.01644,-0.28804 1.59649,-9.72329 1.67708,-10.20683c0.47613,-2.85678 0.40232,-5.87041 1.4669,-8.56384c0.13184,-0.33357 4.84415,-8.55599 5.14587,-9.084c2.24451,-3.92788 4.32563,-9.27925 7.30051,-12.69179c1.19486,-1.37064 2.79269,-2.32947 4.1954,-3.48651c5.00094,-4.12511 10.56269,-9.0841 17.0196,-10.78828c4.60739,-1.21603 10.8751,-0.60664 15.6237,-0.60806c0.56,-0.00017 10.16056,-0.01484 10.45444,0.03941c0.27565,0.05089 9.27295,3.4993 9.77926,3.69634c1.40242,0.54578 2.95189,0.81858 4.1967,1.66421c0.31538,0.21425 7.0042,6.92652 7.47845,7.40076c3.33333,3.33333 6.66667,6.66667 10,10c3.27085,3.2748 6.20416,6.75673 9.01841,10.38846c0.90958,-1.72773 3.11572,-2.46274 4.67486,-3.67558c5.25622,-4.08876 10.72364,-7.93549 16.07684,-11.89686c6.69868,-4.95703 13.39736,-9.91405 20.09605,-14.87108c0.63242,-0.46799 8.21644,-6.11271 8.62236,-6.26998c1.75967,-0.68176 3.74646,-0.4577 5.62207,-0.66584c2.91829,-0.32386 6.06214,-1.8134 8.78049,-0.7035c1.84334,0.75263 3.15957,2.4243 4.71167,3.67144c4.16586,3.34738 7.80103,6.49134 11.16482,10.64886c9.28358,11.52915 19.01752,22.66103 26.74132,35.29997c0.36333,0.59454 5.33986,8.69927 5.45777,9.06032c0.11791,0.36105 0.88422,9.84078 0.94183,10.53516c0.26135,3.14995 1.15088,6.32004 0.73716,9.45362c-0.04623,0.35017 -2.92354,9.41414 -3.11182,10.01036c-0.11314,0.35827 -3.01707,9.57772 -3.11086,9.7764c-0.09481,0.20083 -5.36589,8.33412 -5.59537,8.68877c-4.57393,7.0688 -9.39828,14.35235 -15.44838,20.29035c-0.11102,0.10896 -7.70672,6.26841 -7.94073,6.45831c-4.97126,4.03424 -10.05692,8.2838 -16.09773,10.67805c-4.57593,1.81365 -10.07308,2.56809 -14.85097,3.77591c-10.95854,2.77026 -21.90269,5.0172 -33.01532,7.08426c-1.1716,0.77611 -2.16803,1.92685 -3.5148,2.32834c-0.23529,0.07014 -2.56988,0.22276 -4.99909,0.36622c-2.75501,1.56958 -5.61586,3.08191 -8.22502,3.69785c-4.4712,1.05551 -10.95676,0.1194 -15.57438,0.06688c-1.92468,-0.02189 -3.91802,0.39079 -5.77311,-0.12254c-1.40593,-0.38904 -2.41909,-1.63139 -3.60996,-2.4739c-0.10323,-0.07303 -0.3862,-0.27712 -0.78967,-0.56955c-0.2613,-0.00785 -0.52262,-0.01596 -0.78397,-0.02431l-2.81106,-2.54193c0,0 -0.05425,-0.05425 -0.13424,-0.15325c-1.1637,-0.8532 -2.30069,-1.69187 -3.06674,-2.26783c-0.55818,-0.19816 -0.91289,-0.56368 -1.1383,-0.94821c-1.76616,-1.99885 -2.37428,-4.82013 -3.56262,-7.22288c-1.34188,-2.71319 -2.53853,-5.71233 -3.79973,-8.67591c-1.57346,-0.00102 -3.14325,-0.00408 -4.70782,-0.00598c-1.70869,-0.24198 -3.41739,-0.48396 -5.12608,-0.72594l-2.05025,-0.29289c0,0 -2.47487,-0.35355 -2.12132,-2.82843c0.35355,-2.47487 2.82843,-2.12132 2.82843,-2.12132l2.05025,0.29289c1.59114,0.22942 3.18228,0.45885 4.77342,0.68827c0.69413,-0.00091 1.38866,-0.00182 2.08351,-0.00303c-0.69576,-1.3962 -1.43689,-2.73845 -2.24891,-3.98762c-1.31776,-2.02715 -3.75487,-3.04724 -5.61228,-4.59508c0,0 -1.92055,-1.60046 -0.32009,-3.52101c1.60046,-1.92055 3.52101,-0.32009 3.52101,-0.32009c2.14271,1.78559 4.82321,3.09583 6.38772,5.40492c1.42995,2.11049 2.65082,4.50872 3.7815,6.99761c0.05771,-0.0004 0.11541,-0.00081 0.17312,-0.00123c0.25897,-0.34362 0.65903,-0.64992 1.26663,-0.85246c1.43282,-0.47761 2.28856,0.19893 2.74155,0.80942c6.69413,-0.09895 13.39172,-0.35085 20.03653,-1.01488c0.29759,-0.39075 0.77223,-0.72429 1.5222,-0.87428c0.9744,-0.19488 1.63896,0.07501 2.08604,0.47098c2.13783,-0.26529 4.26911,-0.5784 6.39193,-0.94805c1.67005,-0.29081 3.33892,-0.59028 5.00719,-0.89382c-0.09134,-0.46981 -0.20937,-0.93319 -0.36659,-1.38708z" fill-opacity="0.75294" fill="#ffffff" stroke-width="0.5"/><path d="M144.27557,217.47928c-2.23607,1.11803 -3.3541,-1.11803 -3.3541,-1.11803c-0.66667,-1.33333 -2.33333,-4.66667 -3,-6c0,0 -1.11803,-2.23607 1.11803,-3.3541c2.23607,-1.11803 3.3541,1.11803 3.3541,1.11803c0.66667,1.33333 1.33333,2.66667 2,4l1,2c0,0 1.11803,2.23607 -1.11803,3.3541z" fill-opacity="0.75294" fill="#ffffff" stroke-width="0.5"/><path d="M158.15754,217.74321c-2.5,0 -2.5,-2.5 -2.5,-2.5l0.07464,-0.39366c-0.13632,-0.96924 0.16878,-2.11763 -0.40895,-2.90772c-0.39023,-0.53368 -1.30418,-0.21794 -1.95626,-0.32692c0,0 -2.37171,-0.79057 -1.58114,-3.16228c0.79057,-2.37171 3.16228,-1.58114 3.16228,-1.58114c1.34791,0.55769 3.11018,0.55221 4.04374,1.67308c1.13811,1.36647 1.0607,3.39486 1.59105,5.09228l0.07464,1.60634c0,0 0,2.5 -2.5,2.5z" fill-opacity="0.75294" fill="#ffffff" stroke-width="0.5"/><path d="M107.15754,193.74321c-2.5,0 -2.5,-2.5 -2.5,-2.5l0,-3.00044c0.00289,-8.17377 0.19874,-16.11165 1.01241,-24.24832c0,0 0.24876,-2.48759 2.73635,-2.23883c2.48759,0.24876 2.23883,2.73635 2.23883,2.73635c-0.79727,7.97274 -0.98476,15.74177 -0.98759,23.75168l0,2.99956c0,0 0,2.5 -2.5,2.5z" fill-opacity="0.75294" fill="#ffffff" stroke-width="0.5"/><path d="M226.15754,188.74321c-2.5,0 -2.5,-2.5 -2.5,-2.5v-4c0,-5.31568 0.87575,-11.16439 -0.87171,-16.20943c0,0 -0.79057,-2.37171 1.58114,-3.16228c2.37171,-0.79057 3.16228,1.58114 3.16228,1.58114c1.84705,5.71318 1.12829,11.82013 1.12829,17.79057v4c0,0 0,2.5 -2.5,2.5z" fill-opacity="0.75294" fill="#ffffff" stroke-width="0.5"/><text transform="translate(311.15754,208.74321) scale(1.93012,1.93012)" font-size="40" xml:space="preserve" fill-opacity="0.75294" fill="#ffffff" fill-rule="nonzero" stroke="none" stroke-width="1" stroke-linecap="butt" stroke-linejoin="miter" stroke-miterlimit="10" stroke-dasharray="" stroke-dashoffset="0" font-family="Sans Serif" font-weight="normal" text-anchor="start" style="mix-blend-mode: normal"><tspan x="0" dy="0">Loading</tspan></text></g></g></svg>